<svg width="12" height="13" viewBox="0 0 12 13" fill="none" xmlns="http://www.w3.org/2000/svg">
<path d="M10.2305 1.75781L11.9883 0V5.27344H6.71484L9.14062 2.84766C8.25 1.95703 7.19531 1.51172 5.97656 1.51172C4.73438 1.51172 3.67383 1.95117 2.79492 2.83008C1.91602 3.70898 1.47656 4.76953 1.47656 6.01172C1.47656 7.25391 1.91602 8.31445 2.79492 9.19336C3.67383 10.0723 4.73438 10.5117 5.97656 10.5117C6.84375 10.5117 7.69336 10.2188 8.52539 9.63281C9.35742 9.04688 9.92578 8.34375 10.2305 7.52344H11.7773C11.4492 8.83594 10.7461 9.91406 9.66797 10.7578C8.58984 11.6016 7.35938 12.0234 5.97656 12.0234C4.33594 12.0234 2.92969 11.4375 1.75781 10.2656C0.585938 9.09375 0 7.67578 0 6.01172C0 4.34766 0.585938 2.92969 1.75781 1.75781C2.92969 0.585938 4.33594 0 5.97656 0C6.67969 0 7.44727 0.169922 8.2793 0.509766C9.11133 0.849609 9.76172 1.26562 10.2305 1.75781Z" fill="#E07D61"/>
</svg>
