<svg width="33" height="40" viewBox="0 0 33 40" fill="none" xmlns="http://www.w3.org/2000/svg">
<path d="M14.8482 39.9758C13.9598 39.9758 13.127 39.7854 12.3497 39.4047C11.5724 39.024 10.914 38.4846 10.3747 37.7866L0 24.6041L0.904214 23.6523C1.53875 22.9861 2.30019 22.5895 3.18855 22.4626C4.0769 22.3357 4.90179 22.5102 5.66324 22.9861L9.18491 25.1276V9.51805C9.18491 8.97869 9.36734 8.52658 9.7322 8.16172C10.0971 7.79687 10.5492 7.61444 11.0885 7.61444C11.6279 7.61444 12.0879 7.79687 12.4686 8.16172C12.8494 8.52658 13.0397 8.97869 13.0397 9.51805V31.9806L8.42347 29.1252L13.3729 35.4547C13.5632 35.6768 13.7853 35.8513 14.0391 35.9782C14.2929 36.1051 14.5626 36.1686 14.8482 36.1686H25.3656C26.4126 36.1686 27.3089 35.7958 28.0544 35.0502C28.8 34.3046 29.1728 33.4083 29.1728 32.3614V24.7469C29.1728 24.2076 28.9904 23.7555 28.6255 23.3906C28.2607 23.0257 27.8086 22.8433 27.2692 22.8433H16.8469V19.0361H27.2692C28.8555 19.0361 30.2039 19.5913 31.3144 20.7017C32.4248 21.8122 32.98 23.1606 32.98 24.7469V32.3614C32.98 34.4553 32.2344 36.2479 30.7433 37.7391C29.2521 39.2302 27.4596 39.9758 25.3656 39.9758H14.8482ZM2.85541 14.2771C2.44297 13.5791 2.1257 12.8256 1.90361 12.0165C1.68152 11.2075 1.57048 10.3747 1.57048 9.51805C1.57048 6.88472 2.49849 4.64005 4.35451 2.78403C6.21052 0.928009 8.4552 0 11.0885 0C13.7218 0 15.9665 0.928009 17.8225 2.78403C19.6786 4.64005 20.6066 6.88472 20.6066 9.51805C20.6066 10.3747 20.4955 11.2075 20.2734 12.0165C20.0513 12.8256 19.7341 13.5791 19.3216 14.2771L16.0379 12.3735C16.2917 11.9293 16.4821 11.4772 16.609 11.0171C16.7359 10.5571 16.7994 10.0574 16.7994 9.51805C16.7994 7.9317 16.2441 6.58331 15.1337 5.47288C14.0233 4.36244 12.6749 3.80722 11.0885 3.80722C9.50218 3.80722 8.15379 4.36244 7.04335 5.47288C5.93292 6.58331 5.3777 7.9317 5.3777 9.51805C5.3777 10.0574 5.44115 10.5571 5.56806 11.0171C5.69496 11.4772 5.88532 11.9293 6.13914 12.3735L2.85541 14.2771Z" fill="#E07D61"/>
</svg>
